<svg width="25" height="23" viewBox="0 0 25 23" fill="none" xmlns="http://www.w3.org/2000/svg">
<path d="M3 4H13V5C13 5.5498 13.45 6 14 6C14.55 6 15 5.5498 15 5V2C15 0.899902 14.1 0.00976562 13 0.00976562L3 0C1.89999 0 1 0.899902 1 2V5C1 5.5498 1.45 6 2 6C2.55 6 3 5.5498 3 5V4Z" fill="#03DF96"/>
<path d="M12.12 14.8799L15.29 11.71C15.3827 11.6177 15.4563 11.5078 15.5064 11.3867C15.5566 11.2656 15.5824 11.1357 15.5824 11.0049C15.5824 10.874 15.5566 10.7441 15.5064 10.6235C15.4563 10.5024 15.3827 10.3926 15.29 10.2998L12.12 7.12988C11.73 6.74023 11.09 6.74023 10.7 7.12988C10.6073 7.22266 10.5338 7.33252 10.4836 7.45361C10.4334 7.57422 10.4076 7.7041 10.4076 7.83496C10.4076 7.88721 10.4117 7.93945 10.4199 7.99121C10.4322 8.06836 10.4535 8.14404 10.4836 8.2168C10.5044 8.2666 10.5292 8.31494 10.5577 8.36084C10.598 8.42529 10.6457 8.48584 10.7 8.54004L13.17 11L10.7 13.4702C10.6441 13.5259 10.5952 13.5879 10.5542 13.6548C10.5271 13.6987 10.5035 13.7451 10.4836 13.7935C10.4334 13.9146 10.4076 14.0439 10.4076 14.1748C10.4076 14.3062 10.4334 14.4355 10.4836 14.5566C10.51 14.6206 10.543 14.6812 10.5818 14.7383C10.6167 14.7891 10.6562 14.8364 10.7 14.8799C11.09 15.27 11.73 15.27 12.12 14.8799Z" fill="#03DF96"/>
<path d="M5.28999 13.46L2.83 11L5.28999 8.54004C5.33841 8.4917 5.38161 8.43848 5.41898 8.38184C5.45316 8.32959 5.48247 8.27441 5.50644 8.2168C5.53535 8.14697 5.55618 8.07422 5.56865 8C5.5778 7.9458 5.58244 7.89062 5.58244 7.83496C5.58244 7.7041 5.55661 7.57422 5.50644 7.45361C5.45625 7.33252 5.38271 7.22266 5.28999 7.12988C4.89999 6.74023 4.25999 6.74023 3.87 7.12988L0.699997 10.2998C0.660034 10.3398 0.623627 10.3828 0.591125 10.4287C0.548233 10.4893 0.512115 10.5547 0.483566 10.6235C0.455734 10.6904 0.435394 10.7603 0.422806 10.8315C0.412689 10.8887 0.407562 10.9468 0.407562 11.0049C0.407562 11.0562 0.41153 11.1074 0.419373 11.1577C0.425415 11.1963 0.433746 11.2349 0.444336 11.2729C0.455093 11.3115 0.468185 11.3496 0.483566 11.3867C0.519165 11.4727 0.566528 11.5532 0.62413 11.6255C0.647736 11.6548 0.673065 11.6831 0.699997 11.71L3.87 14.8799C4.25999 15.27 4.89999 15.27 5.28999 14.8799C5.69 14.4902 5.67999 13.8501 5.28999 13.46Z" fill="#03DF96"/>
<path d="M19.9222 9.08252L18.4924 7.43164L24.0397 6.6626L22.4866 12.043L20.5849 9.84766L18.2724 11.2881L13.8133 20.3853L8.24716 16.8926L5.44267 22.2324L4.55733 21.7676L7.86395 15.4712L13.4041 18.9482L17.5005 10.5908L19.9222 9.08252Z" fill="#03DF96"/>
</svg>
