<svg width="23" height="15" viewBox="0 0 23 15" fill="none" xmlns="http://www.w3.org/2000/svg">
<path d="M5.81848 6.98928C5.60135 6.98928 5.39011 7.06009 5.21669 7.19095C5.04326 7.32132 4.9171 7.50491 4.85722 7.71389C4.79736 7.92239 4.80707 8.14505 4.88487 8.34768C4.96268 8.55032 5.10435 8.72219 5.28848 8.83743L7.97548 11.5254C8.01283 11.5625 8.05299 11.5967 8.09555 11.628C8.15886 11.6739 8.22748 11.7119 8.30005 11.7422C8.42142 11.7925 8.55148 11.8184 8.68283 11.8184C8.81418 11.8179 8.94424 11.792 9.06557 11.7417C9.1869 11.6914 9.29713 11.6177 9.38998 11.5249C9.48283 11.4322 9.55646 11.3218 9.60669 11.2002C9.62288 11.1612 9.63652 11.1211 9.64758 11.0806C9.67085 10.9951 9.68271 10.9063 9.68268 10.8174C9.68263 10.6861 9.65672 10.5562 9.60641 10.4351C9.55611 10.3135 9.48239 10.2032 9.38948 10.1104L8.26949 8.99026H15.8185C16.0837 8.99026 16.3381 8.88528 16.5256 8.69778C16.7131 8.51028 16.8185 8.25589 16.8185 7.99026C16.8185 7.72512 16.7131 7.47073 16.5256 7.28323C16.3381 7.09573 16.0837 6.99026 15.8185 6.99026L5.81848 6.98928Z" fill="#03DF96"/>
<path d="M11.8185 5.02151C12.0356 5.02151 12.2469 4.95071 12.4203 4.82034C12.5937 4.68948 12.7199 4.50589 12.7797 4.29739C12.8396 4.08841 12.8299 3.86575 12.7521 3.66311C12.6743 3.46048 12.5326 3.2886 12.3485 3.17337L9.66148 0.486355C9.56923 0.39114 9.45889 0.314969 9.33688 0.262234C9.21489 0.209988 9.08366 0.182156 8.95088 0.181179C8.8181 0.180203 8.68642 0.205594 8.56352 0.255887C8.44063 0.305691 8.32898 0.380398 8.23509 0.474148C8.14119 0.567898 8.06694 0.679715 8.01666 0.802273C7.99988 0.843289 7.98589 0.885281 7.97472 0.92825L7.96259 0.980496C7.94849 1.04934 7.94162 1.11917 7.94223 1.18997C7.94339 1.32278 7.97098 1.45364 8.02338 1.57571C8.05582 1.65139 8.09738 1.7222 8.14699 1.78762C8.17752 1.82766 8.21111 1.86526 8.24748 1.90042L9.36748 3.02151H1.81848C1.55327 3.02151 1.2989 3.12698 1.11137 3.31448C0.923843 3.50198 0.818481 3.75637 0.818481 4.02151C0.818481 4.28665 0.923843 4.54104 1.11137 4.72854C1.2989 4.91604 1.55327 5.02151 1.81848 5.02151H11.8185Z" fill="#03DF96"/>
<path d="M21.1294 6.23636L15.8281 14.7183L14.696 10.7564L9.25194 13.9322L8.74806 13.0679L15.304 9.24368L16.1719 12.2818L20.2154 5.81204L19.0832 5.28567L21.6637 3.8428L22.2247 6.74563L21.1294 6.23636Z" fill="#03DF96"/>
</svg>
