<svg id="Layer_1" data-name="Layer 1" xmlns="http://www.w3.org/2000/svg" viewBox="0 0 1080 1080"><defs><style>.cls-1{fill:#00ffab;}.cls-2{fill:#00e8ff;}</style></defs><path class="cls-1" d="M631.35,295.38V572.27H548.59L465.85,428.8V532.23c0,26.2,3.8,163.31-173.19,155.72-177,7.59-173.21-129.52-173.21-155.72V285.33H229.62s-1.54,166.37,0,243.1c.38,19,4.59,39.51,18.43,53.46,8.41,8.43,19.59,13.41,31.31,15,19.07,2.64,40.69.36,55.61-12.87,15.28-13.54,20.15-34.71,20.71-54.33,0-.41,0-.84,0-1.28,1.51-76.73,0-243.1,0-243.1H465.85l99.4,185.54V295.38Z"/><path class="cls-2" d="M958,318.61c-6.36-37.59-28.1-78.84-68.61-87.43-21.59-4.56-42.05,1.59-59.87,13.77a101.81,101.81,0,0,0-15.38,12.56c-1.21,1.15-4.72,4-6.9,6.36-.87-2.54-1.82-5.18-2.72-7.77L798.87,240c-.23-.62-2.56-8.74-3-8.74H727.44V576.84l-52.63,76.09-48.15-72.19H553.48L634,711.88,538.28,850.33h88.38l48.45-71.59,44,71.59h87.35L717.21,716.54l94.56-139.7V447c21.28,20.52,51.73,31.28,80.83,23.23C953.86,453.24,967.06,372.3,958,318.61ZM844,409.73c-19.38,0-35.1-26.51-35.1-59.2s15.72-59.18,35.1-59.18,35.13,26.51,35.13,59.18S863.38,409.73,844,409.73Z"/></svg>