<svg width="610" height="538" viewBox="0 0 610 538" fill="none" xmlns="http://www.w3.org/2000/svg">
<path d="M511.906 -144.215V195.918H429.146L346.406 19.6788V146.733C346.406 178.917 350.206 347.343 173.216 338.02C-3.7836 347.343 0.00639154 178.917 0.00639154 146.733V-156.56H110.176C110.176 -156.56 108.636 47.8093 110.176 142.065C110.556 165.404 114.766 190.599 128.606 207.735C137.016 218.091 148.196 224.208 159.916 226.161C178.986 229.404 200.606 226.604 215.526 210.352C230.806 193.719 235.676 167.714 236.236 143.613C236.236 143.109 236.236 142.581 236.236 142.04C237.746 47.7847 236.236 -156.585 236.236 -156.585H346.406L445.806 71.3333V-144.215H511.906Z" fill="#00FFAB" fill-opacity="0.2"/>
<path d="M838.556 -115.679C832.196 -161.855 810.456 -212.526 769.946 -223.078C748.356 -228.68 727.896 -221.125 710.076 -206.163C704.553 -201.648 699.402 -196.481 694.696 -190.734C693.486 -189.322 689.976 -185.821 687.796 -182.922C686.926 -186.042 685.976 -189.285 685.076 -192.466L679.426 -212.244C679.196 -213.005 676.866 -222.98 676.426 -222.98H607.996V201.532L555.366 295.001L507.216 206.323H434.036L514.556 367.416L418.836 537.488H507.216L555.666 449.547L599.666 537.488H687.016L597.766 373.14L692.326 201.532V42.0359C713.606 67.2427 744.056 80.4604 773.156 70.5717C834.416 49.7012 847.616 -49.7259 838.556 -115.679ZM724.556 -3.74672C705.176 -3.74672 689.456 -36.3117 689.456 -76.4682C689.456 -116.625 705.176 -149.165 724.556 -149.165C743.936 -149.165 759.686 -116.6 759.686 -76.4682C759.686 -36.3363 743.936 -3.74672 724.556 -3.74672Z" fill="#00E8FF" fill-opacity="0.6"/>
</svg>
