<svg width="168" height="145" viewBox="0 0 168 145" fill="none" xmlns="http://www.w3.org/2000/svg">
<path d="M23 84L23.722 82.1349L21.6383 81.3283L21.0666 83.4882L23 84ZM54 96L53.278 97.8651L54.6686 98.4034L55.5814 97.2243L54 96ZM78 65L78.7878 63.1617L77.3657 62.5522L76.4186 63.7757L78 65ZM106 77L105.212 78.8383L106.492 79.3869L107.451 78.3765L106 77ZM2 143H0V145H2V143ZM15.9334 118.512L24.9334 84.5118L21.0666 83.4882L12.0666 117.488L15.9334 118.512ZM22.278 85.8651L53.278 97.8651L54.722 94.1349L23.722 82.1349L22.278 85.8651ZM55.5814 97.2243L79.5814 66.2243L76.4186 63.7757L52.4186 94.7757L55.5814 97.2243ZM77.2122 66.8383L105.212 78.8383L106.788 75.1617L78.7878 63.1617L77.2122 66.8383ZM107.451 78.3765L144.451 39.3765L141.549 36.6235L104.549 75.6235L107.451 78.3765ZM28 83.5C28 85.433 26.433 87 24.5 87V91C28.6421 91 32 87.6421 32 83.5H28ZM24.5 87C22.567 87 21 85.433 21 83.5H17C17 87.6421 20.3579 91 24.5 91V87ZM21 83.5C21 81.567 22.567 80 24.5 80V76C20.3579 76 17 79.3579 17 83.5H21ZM24.5 80C26.433 80 28 81.567 28 83.5H32C32 79.3579 28.6421 76 24.5 76V80ZM57 93.5C57 95.433 55.433 97 53.5 97V101C57.6421 101 61 97.6421 61 93.5H57ZM53.5 97C51.567 97 50 95.433 50 93.5H46C46 97.6421 49.3579 101 53.5 101V97ZM50 93.5C50 91.567 51.567 90 53.5 90V86C49.3579 86 46 89.3579 46 93.5H50ZM53.5 90C55.433 90 57 91.567 57 93.5H61C61 89.3579 57.6421 86 53.5 86V90ZM83 65.5C83 67.433 81.433 69 79.5 69V73C83.6421 73 87 69.6421 87 65.5H83ZM79.5 69C77.567 69 76 67.433 76 65.5H72C72 69.6421 75.3579 73 79.5 73V69ZM76 65.5C76 63.567 77.567 62 79.5 62V58C75.3579 58 72 61.3579 72 65.5H76ZM79.5 62C81.433 62 83 63.567 83 65.5H87C87 61.3579 83.6421 58 79.5 58V62ZM110 74.5C110 76.433 108.433 78 106.5 78V82C110.642 82 114 78.6421 114 74.5H110ZM106.5 78C104.567 78 103 76.433 103 74.5H99C99 78.6421 102.358 82 106.5 82V78ZM103 74.5C103 72.567 104.567 71 106.5 71V67C102.358 67 99 70.3579 99 74.5H103ZM106.5 71C108.433 71 110 72.567 110 74.5H114C114 70.3579 110.642 67 106.5 67V71ZM146 38.5C146 40.433 144.433 42 142.5 42V46C146.642 46 150 42.6421 150 38.5H146ZM142.5 42C140.567 42 139 40.433 139 38.5H135C135 42.6421 138.358 46 142.5 46V42ZM139 38.5C139 36.567 140.567 35 142.5 35V31C138.358 31 135 34.3579 135 38.5H139ZM142.5 35C144.433 35 146 36.567 146 38.5H150C150 34.3579 146.642 31 142.5 31V35ZM0 0V143H4V0H0ZM2 145H168V141H2V145Z" fill="#03DF96"/>
</svg>
