<svg width="22" height="23" viewBox="0 0 22 23" fill="none" xmlns="http://www.w3.org/2000/svg">
<path d="M15.5067 9.61093C15.2256 9.61093 14.9977 9.22653 14.9977 8.7525C14.9977 8.27847 15.2256 7.89435 15.5067 7.89435C15.7877 7.89435 16.0161 8.27875 16.0161 8.7525C16.0161 9.22623 15.7877 9.61093 15.5067 9.61093Z" fill="black"/>
<path d="M11.5554 5.59091V5.47586C11.5554 5.40979 11.5714 5.35086 11.6033 5.29901C11.6263 5.26199 11.6598 5.23801 11.7036 5.22705C11.722 5.22247 11.7422 5.22018 11.7642 5.22018C11.8409 5.22018 11.8942 5.24646 11.924 5.29901C11.9538 5.35086 11.9688 5.40979 11.9688 5.47586V5.59091C11.9688 5.65695 11.9531 5.71628 11.9219 5.76883C11.8913 5.82068 11.8388 5.84659 11.7642 5.84659C11.6875 5.84659 11.6335 5.82068 11.6023 5.76883C11.584 5.73804 11.571 5.7049 11.5634 5.66943C11.5581 5.64441 11.5554 5.61823 11.5554 5.59091Z" fill="black"/>
<path d="M10.4688 4.34232V4.22726C10.4688 4.16122 10.4847 4.10226 10.5167 4.05042C10.5493 3.99786 10.603 3.97159 10.6776 3.97159C10.7543 3.97159 10.8075 3.99786 10.8374 4.05042C10.8672 4.10226 10.8821 4.16122 10.8821 4.22726V4.34232C10.8821 4.40839 10.8665 4.46768 10.8352 4.52023C10.823 4.54092 10.8073 4.5575 10.7881 4.56995C10.7592 4.58865 10.7224 4.59802 10.6776 4.59802C10.6009 4.59802 10.5469 4.57208 10.5156 4.52023C10.4983 4.49109 10.4858 4.4599 10.4781 4.42664C10.4719 4.39987 10.4688 4.37177 10.4688 4.34232Z" fill="black"/>
<path fill-rule="evenodd" clip-rule="evenodd" d="M17.43 2.16L18.04 6.01999L21.55 7.81L19.78 11.31L21.56 14.81L18.02 16.6L17.41 20.46L13.52 19.85L10.75 22.61L7.97 19.81L4.10999 20.45L3.48999 16.56L0 14.78L1.78 11.28L0.0100098 7.81L3.51999 6L4.13 2.17001L8 2.81L10.78 0L13.55 2.76999L17.43 2.16ZM12.4231 11.9678V7.95267H11.4646V10.4971L10.0232 7.80664H8.42563C8.42563 7.80664 8.44751 10.2191 8.42563 11.3318V11.3503C8.41751 11.6349 8.34689 11.9418 8.12531 12.1382C7.90897 12.33 7.59546 12.3631 7.31891 12.3248C7.14896 12.3018 6.98685 12.2295 6.8649 12.1073C6.66422 11.905 6.60315 11.6076 6.59766 11.3321C6.57532 10.2194 6.59766 7.80692 6.59766 7.80692H5.00009V11.3872L5.00003 11.4106C4.99896 11.8421 4.99408 13.7532 7.51178 13.6453C10.0292 13.7532 10.0243 11.8423 10.0232 11.4107L10.0232 11.3872V9.88736L11.223 11.9678H12.4231ZM17.1598 8.28961C17.0675 7.74454 16.7523 7.14639 16.1649 7.02182C15.8518 6.95569 15.5551 7.04489 15.2967 7.2215C15.2166 7.27478 15.1419 7.33578 15.0737 7.40363C15.0682 7.40881 15.0595 7.41641 15.0492 7.42545C15.0263 7.44537 14.9954 7.47229 14.9736 7.49585L14.9572 7.44885L14.8523 7.14972C14.8515 7.14758 14.8489 7.13928 14.8455 7.1279C14.8344 7.09131 14.8136 7.02298 14.8087 7.02298H13.8165V12.0342L13.0533 13.1375L12.3551 12.0907H11.2939L12.4615 13.9924L11.0735 16H12.3551L13.0576 14.9619L13.6957 16H14.9623L13.6681 14.0599L15.0393 12.0342V10.1514C15.3479 10.4489 15.7894 10.605 16.2114 10.4883C17.0997 10.2419 17.2911 9.06818 17.1598 8.28961ZM11.3381 5.47586V5.59091C11.3381 5.67044 11.3544 5.74362 11.3871 5.81036C11.4197 5.87643 11.4677 5.92969 11.5309 5.97018C11.5941 6.00995 11.6719 6.02982 11.7642 6.02982C11.8551 6.02982 11.9318 6.00995 11.9943 5.97018C12.0575 5.92969 12.1051 5.87643 12.1371 5.81036C12.1697 5.74362 12.1861 5.67044 12.1861 5.59091V5.47586C12.1861 5.3963 12.1701 5.32352 12.1382 5.25745C12.1062 5.1907 12.059 5.13742 11.9965 5.09766C11.934 5.05716 11.8565 5.03693 11.7642 5.03693C11.6733 5.03693 11.5959 5.05716 11.532 5.09766C11.4688 5.13742 11.4204 5.1907 11.3871 5.25745C11.3544 5.32352 11.3381 5.3963 11.3381 5.47586ZM10.2514 4.22726V4.34232C10.2514 4.42188 10.2678 4.49503 10.3004 4.5618C10.3331 4.62784 10.381 4.68112 10.4442 4.72159C10.4789 4.74338 10.5179 4.75919 10.5612 4.76904C10.597 4.77719 10.6358 4.78125 10.6776 4.78125C10.7685 4.78125 10.8452 4.76135 10.9077 4.72159C10.9709 4.68112 11.0185 4.62784 11.0504 4.5618C11.0684 4.52512 11.0814 4.48654 11.0895 4.44601C11.0961 4.41275 11.0994 4.37817 11.0994 4.34232V4.22726C11.0994 4.14774 11.0835 4.07492 11.0515 4.00888C11.0195 3.94211 10.9723 3.88885 10.9098 3.84909C10.8473 3.80859 10.7699 3.78836 10.6776 3.78836C10.5866 3.78836 10.5092 3.80859 10.4453 3.84909C10.3821 3.88885 10.3338 3.94211 10.3004 4.00888C10.2914 4.0271 10.2836 4.04587 10.2771 4.06512C10.26 4.11563 10.2514 4.16968 10.2514 4.22726ZM11.8324 3.81818L10.3324 6H10.5753L12.0753 3.81818H11.8324Z" fill="black"/>
</svg>
