<svg width="380" height="228" viewBox="0 0 380 228" fill="none" xmlns="http://www.w3.org/2000/svg">
<path d="M34.9721 92.1792C29.8103 94.7028 29.7192 102.027 34.8166 104.678L177.62 178.952C179.73 180.05 182.253 180.001 184.318 178.822L363.774 76.4653C368.703 73.6537 368.414 66.4531 363.275 64.0458L228.038 0.695698C226.12 -0.202974 223.898 -0.18449 221.995 0.745976L34.9721 92.1792Z" fill="#03DF96"/>
<path d="M380 122C380 134.703 369.702 145 357 145C351.479 145 346.412 143.055 342.448 139.812L189.735 225.538C185.127 228.124 179.52 228.185 174.857 225.7L144.166 209.343L35.9804 150.99C32.286 153.52 27.8158 155 22.9999 155C10.2973 155 -0.00012207 144.703 -0.00012207 132C-0.00012207 119.298 10.2973 109 22.9999 109C35.7024 109 45.9999 119.298 45.9999 132C45.9999 133.649 45.8264 135.257 45.4967 136.807L152.18 194.351L152.218 194.371L182.129 210.312L334.188 124.954C334.064 123.987 334 123.001 334 122C334 109.298 344.297 99.0001 357 99.0001C369.702 99.0001 380 109.298 380 122Z" fill="#03DF96"/>
</svg>
